<svg width="16" height="16" viewBox="0 0 16 16" fill="none" xmlns="http://www.w3.org/2000/svg">
<path fill-rule="evenodd" clip-rule="evenodd" d="M8.00008 2.66665C6.89548 2.66665 6.00008 3.56208 6.00008 4.66665C6.00008 5.77121 6.89548 6.66665 8.00008 6.66665C9.10468 6.66665 10.0001 5.77121 10.0001 4.66665C10.0001 3.56208 9.10468 2.66665 8.00008 2.66665ZM4.66675 4.66665C4.66675 2.8257 6.15913 1.33331 8.00008 1.33331C9.84101 1.33331 11.3334 2.8257 11.3334 4.66665C11.3334 6.50759 9.84101 7.99998 8.00008 7.99998C6.15913 7.99998 4.66675 6.50759 4.66675 4.66665ZM2.66675 14C2.66675 11.0544 5.05456 8.66665 8.00008 8.66665C10.9456 8.66665 13.3334 11.0544 13.3334 14C13.3334 14.3682 13.0349 14.6666 12.6667 14.6666C12.2985 14.6666 12.0001 14.3682 12.0001 14C12.0001 11.7908 10.2092 9.99998 8.00008 9.99998C5.79094 9.99998 4.00008 11.7908 4.00008 14C4.00008 14.3682 3.7016 14.6666 3.33341 14.6666C2.96523 14.6666 2.66675 14.3682 2.66675 14Z" fill="black"/>
</svg>
