<svg width="23" height="23" viewBox="0 0 23 23" fill="none" xmlns="http://www.w3.org/2000/svg">
<path fill-rule="evenodd" clip-rule="evenodd" d="M14.375 3.83329V2.87496C14.375 2.34596 14.8043 1.91663 15.3333 1.91663C15.8623 1.91663 16.2917 2.34596 16.2917 2.87496V3.83329C18.4086 3.83329 20.125 5.54967 20.125 7.66663V17.25C20.125 19.3669 18.4086 21.0833 16.2917 21.0833C13.5508 21.0833 9.44821 21.0833 6.70833 21.0833C4.59137 21.0833 2.875 19.3669 2.875 17.25V7.66663C2.875 5.54967 4.59137 3.83329 6.70833 3.83329V2.87496C6.70833 2.34596 7.13767 1.91663 7.66667 1.91663C8.19567 1.91663 8.625 2.34596 8.625 2.87496V3.83329H14.375ZM18.2083 11.5H4.79167V17.25C4.79167 18.308 5.64937 19.1666 6.70833 19.1666H16.2917C17.3497 19.1666 18.2083 18.308 18.2083 17.25V11.5ZM16.2917 5.74996V6.70829C16.2917 7.23729 15.8623 7.66663 15.3333 7.66663C14.8043 7.66663 14.375 7.23729 14.375 6.70829V5.74996H8.625V6.70829C8.625 7.23729 8.19567 7.66663 7.66667 7.66663C7.13767 7.66663 6.70833 7.23729 6.70833 6.70829V5.74996C5.64937 5.74996 4.79167 6.60767 4.79167 7.66663V9.58329H18.2083V7.66663C18.2083 6.60767 17.3497 5.74996 16.2917 5.74996Z" fill="black"/>
</svg>
