<svg width="14" height="14" viewBox="0 0 14 14" fill="none" xmlns="http://www.w3.org/2000/svg">
<g clip-path="url(#clip0_198_244)">
<path d="M6.98252 13.1251C6.56324 13.1251 6.16492 12.9154 5.89239 12.5451L5.05384 11.427C5.05384 11.434 5.0189 11.413 5.00492 11.413H4.74637C2.35647 11.413 0.875 10.7631 0.875 7.54163V4.74642C0.875 1.80447 2.67093 1.03579 4.18034 0.90302C4.34805 0.882056 4.54372 0.875061 4.74637 0.875061H9.2187C11.7484 0.875061 13.0901 2.21677 13.0901 4.74642V7.54163C13.0901 7.74429 13.0831 7.93995 13.0551 8.12863C12.9293 9.61707 12.1607 11.413 9.2187 11.413H8.93918L8.07266 12.5451C7.80013 12.9154 7.40181 13.1251 6.98252 13.1251ZM4.74637 1.92326C4.58565 1.92326 4.4319 1.93025 4.28515 1.94423C2.66393 2.08399 1.9232 2.97147 1.9232 4.74642V7.54163C1.9232 9.93852 2.66394 10.3648 4.74637 10.3648H5.02588C5.34035 10.3648 5.69673 10.5395 5.89239 10.7911L6.73096 11.9161C6.8847 12.1258 7.08036 12.1258 7.2341 11.9161L8.07266 10.7981C8.27531 10.5255 8.59676 10.3648 8.93918 10.3648H9.2187C10.9937 10.3648 11.8811 9.61707 12.0139 8.02381C12.0349 7.85609 12.0419 7.70236 12.0419 7.54163V4.74642C12.0419 2.79677 11.1684 1.92326 9.2187 1.92326H4.74637Z" fill="#A0A0A0"/>
<path d="M6.98274 7.12246C6.59141 7.12246 6.28394 6.808 6.28394 6.42366C6.28394 6.03931 6.5984 5.72485 6.98274 5.72485C7.36706 5.72485 7.68152 6.03931 7.68152 6.42366C7.68152 6.808 7.37405 7.12246 6.98274 7.12246Z" fill="#A0A0A0"/>
<path d="M9.21858 7.12246C8.82725 7.12246 8.51978 6.808 8.51978 6.42366C8.51978 6.03931 8.83424 5.72485 9.21858 5.72485C9.60292 5.72485 9.91738 6.03931 9.91738 6.42366C9.91738 6.808 9.60292 7.12246 9.21858 7.12246Z" fill="#A0A0A0"/>
<path d="M4.75325 7.12246C4.36192 7.12246 4.05444 6.808 4.05444 6.42366C4.05444 6.03931 4.3689 5.72485 4.75325 5.72485C5.13759 5.72485 5.45205 6.03931 5.45205 6.42366C5.45205 6.808 5.13759 7.12246 4.75325 7.12246Z" fill="#A0A0A0"/>
</g>
<defs>
<clipPath id="clip0_198_244">
<rect width="14" height="14" fill="white"/>
</clipPath>
</defs>
</svg>
