<svg width="12" height="12" viewBox="0 0 12 12" fill="none" xmlns="http://www.w3.org/2000/svg">
<path d="M10.2 2.39996H1.79995C1.64082 2.39996 1.48821 2.46318 1.37569 2.5757C1.26317 2.68822 1.19995 2.84083 1.19995 2.99996C1.19995 3.15909 1.26317 3.31171 1.37569 3.42423C1.48821 3.53675 1.64082 3.59996 1.79995 3.59996V9.35456C1.80059 9.89684 2.01629 10.4167 2.39974 10.8002C2.78319 11.1836 3.30307 11.3993 3.84535 11.4H8.15455C8.69683 11.3993 9.21672 11.1836 9.60017 10.8002C9.98361 10.4167 10.1993 9.89684 10.2 9.35456V3.59996C10.3591 3.59996 10.5117 3.53675 10.6242 3.42423C10.7367 3.31171 10.8 3.15909 10.8 2.99996C10.8 2.84083 10.7367 2.68822 10.6242 2.5757C10.5117 2.46318 10.3591 2.39996 10.2 2.39996ZM8.99995 9.35456C8.99979 9.57873 8.91067 9.79367 8.75216 9.95218C8.59365 10.1107 8.37872 10.1998 8.15455 10.2H3.84535C3.62119 10.1998 3.40625 10.1107 3.24774 9.95218C3.08923 9.79367 3.00011 9.57873 2.99995 9.35456V3.59996H8.99995V9.35456Z" fill="#FF3D00"/>
<path d="M4.79995 1.79998H7.19995C7.35908 1.79998 7.51169 1.73676 7.62422 1.62424C7.73674 1.51172 7.79995 1.35911 7.79995 1.19998C7.79995 1.04085 7.73674 0.888233 7.62422 0.775711C7.51169 0.66319 7.35908 0.599976 7.19995 0.599976H4.79995C4.64082 0.599976 4.48821 0.66319 4.37569 0.775711C4.26317 0.888233 4.19995 1.04085 4.19995 1.19998C4.19995 1.35911 4.26317 1.51172 4.37569 1.62424C4.48821 1.73676 4.64082 1.79998 4.79995 1.79998Z" fill="#FF3D00"/>
<path d="M4.79995 8.39996C4.95908 8.39996 5.11169 8.33675 5.22422 8.22423C5.33674 8.11171 5.39995 7.95909 5.39995 7.79996V5.99996C5.39995 5.84083 5.33674 5.68822 5.22422 5.5757C5.11169 5.46318 4.95908 5.39996 4.79995 5.39996C4.64082 5.39996 4.48821 5.46318 4.37569 5.5757C4.26317 5.68822 4.19995 5.84083 4.19995 5.99996V7.79996C4.19995 7.95909 4.26317 8.11171 4.37569 8.22423C4.48821 8.33675 4.64082 8.39996 4.79995 8.39996Z" fill="#FF3D00"/>
<path d="M7.19985 8.39996C7.35898 8.39996 7.5116 8.33675 7.62412 8.22423C7.73664 8.11171 7.79985 7.95909 7.79985 7.79996V5.99996C7.79985 5.84083 7.73664 5.68822 7.62412 5.5757C7.5116 5.46318 7.35898 5.39996 7.19985 5.39996C7.04072 5.39996 6.88811 5.46318 6.77559 5.5757C6.66307 5.68822 6.59985 5.84083 6.59985 5.99996V7.79996C6.59985 7.95909 6.66307 8.11171 6.77559 8.22423C6.88811 8.33675 7.04072 8.39996 7.19985 8.39996Z" fill="#FF3D00"/>
</svg>
