<svg width="16" height="16" viewBox="0 0 16 16" fill="none" xmlns="http://www.w3.org/2000/svg">
<path fill-rule="evenodd" clip-rule="evenodd" d="M11.6096 5.49507L9.17165 3.05717L10.1145 2.11436L12.5524 4.55226C13.0525 5.05236 13.3334 5.73064 13.3334 6.43788V12C13.3334 13.4727 12.1395 14.6666 10.6667 14.6666H5.33341C3.86066 14.6666 2.66675 13.4727 2.66675 12V3.99998C2.66675 2.52722 3.86066 1.33331 5.33341 1.33331H8.22885C8.93609 1.33331 9.61437 1.61426 10.1145 2.11436L9.17165 3.05717C8.92161 2.80712 8.58247 2.66665 8.22885 2.66665H5.33341C4.59703 2.66665 4.00008 3.2636 4.00008 3.99998V12C4.00008 12.7364 4.59704 13.3333 5.33341 13.3333H10.6667C11.4031 13.3333 12.0001 12.7364 12.0001 12V6.43788C12.0001 6.08426 11.8596 5.74512 11.6096 5.49507Z" fill="black"/>
<path fill-rule="evenodd" clip-rule="evenodd" d="M5.3335 7.99998C5.3335 7.63179 5.63197 7.33331 6.00016 7.33331H10.0002C10.3684 7.33331 10.6668 7.63179 10.6668 7.99998C10.6668 8.36817 10.3684 8.66665 10.0002 8.66665H6.00016C5.63197 8.66665 5.3335 8.36817 5.3335 7.99998Z" fill="black"/>
<path fill-rule="evenodd" clip-rule="evenodd" d="M5.3335 10.6667C5.3335 10.2985 5.63197 10 6.00016 10H10.0002C10.3684 10 10.6668 10.2985 10.6668 10.6667C10.6668 11.0349 10.3684 11.3333 10.0002 11.3333H6.00016C5.63197 11.3333 5.3335 11.0349 5.3335 10.6667Z" fill="black"/>
</svg>
