<svg width="24" height="24" viewBox="0 0 24 24" fill="none" xmlns="http://www.w3.org/2000/svg">
<path d="M19.0295 8.53428C19.0341 8.32648 18.9739 8.12242 18.8571 7.95046C18.7403 7.77851 18.5728 7.6472 18.378 7.57481C18.1831 7.50242 17.9706 7.49253 17.7699 7.54652C17.5692 7.60052 17.3903 7.71571 17.2581 7.87608L12.0159 13.9952L6.77561 7.87608C6.69407 7.76514 6.59056 7.67223 6.47145 7.60317C6.35234 7.53412 6.22023 7.49039 6.08344 7.47474C5.94665 7.45909 5.80814 7.47186 5.67651 7.51223C5.54489 7.5526 5.42298 7.61972 5.31849 7.70938C5.21401 7.79903 5.12925 7.9093 5.06935 8.03326C5.00945 8.15723 4.97581 8.29223 4.9705 8.4298C4.9652 8.56738 4.98827 8.70457 5.03844 8.83278C5.08861 8.96099 5.16471 9.07747 5.26197 9.17491L11.2562 16.1808C11.3501 16.2908 11.4666 16.3791 11.5979 16.4397C11.7293 16.5003 11.8722 16.5317 12.0169 16.5317C12.1615 16.5317 12.3044 16.5003 12.4358 16.4397C12.5671 16.3791 12.6838 16.2908 12.7777 16.1808L18.7776 9.17491C18.9348 8.99793 19.024 8.77093 19.0295 8.53428Z" fill="black"/>
</svg>
