<svg width="16" height="16" viewBox="0 0 16 16" fill="none" xmlns="http://www.w3.org/2000/svg">
<path d="M2.26697 14.6666C2.13398 14.6663 2.00258 14.6377 1.88153 14.5826C1.76048 14.5275 1.65257 14.4473 1.56497 14.3472C1.47737 14.2471 1.4121 14.1295 1.37351 14.0023C1.33493 13.875 1.32391 13.741 1.34119 13.6091L1.67556 11.0539C1.70612 10.8226 1.8119 10.6078 1.97661 10.4427L10.7863 1.63297C10.9787 1.44107 11.2394 1.33331 11.5112 1.33331C11.7829 1.33331 12.0436 1.44107 12.236 1.63297L14.3668 3.76371C14.5587 3.95615 14.6664 4.21682 14.6664 4.48859C14.6664 4.76035 14.5587 5.02103 14.3668 5.21346L5.5571 14.0232C5.39196 14.1879 5.17717 14.2937 4.9459 14.3242L2.39067 14.6586C2.34966 14.664 2.30834 14.6667 2.26697 14.6666ZM2.95578 11.3049L2.69406 13.3057L4.69485 13.044L13.2501 4.48872L11.511 2.74964L2.95578 11.3049Z" fill="black"/>
<path d="M11.9284 7.38214C11.8429 7.38239 11.7583 7.36577 11.6793 7.33324C11.6003 7.30071 11.5285 7.2529 11.468 7.19255L8.80701 4.5316C8.6849 4.40935 8.61636 4.2436 8.61646 4.07081C8.61655 3.89802 8.68529 3.73235 8.80754 3.61024C8.92978 3.48813 9.09554 3.41958 9.26832 3.41968C9.44111 3.41978 9.60678 3.48851 9.7289 3.61076L12.3888 6.27067C12.4799 6.36172 12.5419 6.47774 12.567 6.60405C12.5922 6.73035 12.5793 6.86127 12.53 6.98025C12.4807 7.09923 12.3972 7.20092 12.2902 7.27245C12.1831 7.34399 12.0572 7.38216 11.9284 7.38214Z" fill="black"/>
</svg>
