<svg width="16" height="16" viewBox="0 0 16 16" fill="none" xmlns="http://www.w3.org/2000/svg">
<path d="M13.6055 3H2.39453C2.02481 3.00041 1.67034 3.14747 1.4089 3.4089C1.14747 3.67034 1.00041 4.02481 1 4.39453L1 11.5916C1.00041 11.9613 1.14747 12.3158 1.4089 12.5772C1.67034 12.8386 2.02481 12.9857 2.39453 12.9861H13.6055C13.9752 12.9857 14.3297 12.8386 14.5911 12.5772C14.8525 12.3158 14.9996 11.9613 15 11.5916V4.39437C14.9995 4.02467 14.8525 3.67025 14.591 3.40885C14.3296 3.14745 13.9752 3.00041 13.6055 3ZM8.33204 8.24087C8.23928 8.31951 8.12161 8.36268 8 8.36268C7.87839 8.36268 7.76072 8.31951 7.66796 8.24087L2.41334 3.875H13.5867L8.33204 8.24087ZM6.00049 7.99297L1.875 11.4208V4.56516L6.00049 7.99297ZM6.68507 8.56172L7.10889 8.9138C7.35932 9.12176 7.67459 9.23561 8.00011 9.23561C8.32563 9.23561 8.6409 9.12176 8.89132 8.9138L9.31515 8.56172L13.5868 12.1109H2.41337L6.68507 8.56172ZM9.99951 7.99297L14.125 4.56516V11.4208L9.99951 7.99297Z" fill="black"/>
</svg>
