<svg id="Capa_1" enable-background="new 0 0 49.652 49.652" height="512" viewBox="0 0 49.652 49.652" width="512" xmlns="http://www.w3.org/2000/svg"><g><g><path d="m24.826 0c-13.689 0-24.826 11.137-24.826 24.826 0 13.688 11.137 24.826 24.826 24.826 13.688 0 24.826-11.138 24.826-24.826 0-13.689-11.136-24.826-24.826-24.826zm6.174 25.7h-4.039v14.396h-5.985s0-7.866 0-14.396h-2.845v-5.088h2.845v-3.291c0-2.357 1.12-6.04 6.04-6.04l4.435.017v4.939s-2.695 0-3.219 0-1.269.262-1.269 1.386v2.99h4.56z"/></g></g></svg>