<svg width="24" height="24" viewBox="0 0 24 24" fill="none" xmlns="http://www.w3.org/2000/svg">
<path fill-rule="evenodd" clip-rule="evenodd" d="M12 21C7.03738 21 3 16.9626 3 12C3 7.03738 7.03738 3 12 3C16.9626 3 21 7.03738 21 12C21 16.9626 16.9626 21 12 21ZM13.6546 16.7846C14.9337 16.341 15.9817 15.3982 16.5638 14.1902H14.5024C14.3868 14.8852 14.2157 15.526 13.9947 16.0787C13.8905 16.3392 13.7766 16.5746 13.6546 16.7846ZM7.43626 14.1903C8.01834 15.3982 9.06628 16.341 10.3454 16.7846C10.2234 16.5746 10.1095 16.3392 10.0053 16.0787C9.78424 15.526 9.61317 14.8852 9.49758 14.1903H7.43626ZM10.3454 7.21545C9.06628 7.65905 8.01834 8.6018 7.43626 9.80977H9.49758C9.61317 9.11483 9.78424 8.474 10.0053 7.92131C10.1095 7.66084 10.2234 7.42536 10.3454 7.21545ZM12 6.9375C11.6309 6.9375 11.1978 7.44702 10.8698 8.26711C10.6888 8.71961 10.5453 9.24185 10.4423 9.80977H13.5577C13.4547 9.24189 13.3113 8.71961 13.1302 8.26711C12.8022 7.44702 12.3691 6.9375 12 6.9375ZM6.9375 12C6.9375 12.4346 6.99259 12.8565 7.09605 13.2592H9.3797C9.34271 12.8497 9.3231 12.4283 9.3231 12C9.3231 11.5717 9.34271 11.1503 9.3797 10.7408H7.09605C6.99259 11.1435 6.9375 11.5654 6.9375 12ZM10.314 13.2592H13.6861C13.7254 12.8523 13.7459 12.4303 13.7459 12C13.7459 11.5697 13.7254 11.1477 13.6861 10.7408H10.314C10.2747 11.1477 10.2541 11.5697 10.2541 12C10.2541 12.4303 10.2746 12.8523 10.314 13.2592ZM12 17.0625C12.3691 17.0625 12.8022 16.553 13.1302 15.7329C13.3112 15.2804 13.4547 14.7581 13.5577 14.1902H10.4423C10.5453 14.7581 10.6888 15.2804 10.8698 15.7329C11.1978 16.553 11.6309 17.0625 12 17.0625ZM17.0625 12C17.0625 11.5654 17.0074 11.1435 16.9039 10.7408H14.6203C14.6573 11.1503 14.6769 11.5717 14.6769 12C14.6769 12.4283 14.6573 12.8497 14.6203 13.2592H16.9039C17.0074 12.8565 17.0625 12.4346 17.0625 12ZM16.5637 9.80973C15.9817 8.60176 14.9337 7.65901 13.6545 7.21541C13.7766 7.42536 13.8904 7.66084 13.9946 7.92131C14.2157 8.474 14.3868 9.1148 14.5024 9.80977L16.5637 9.80973ZM17.9935 12C17.9935 15.3048 15.3048 17.9935 12 17.9935C8.69514 17.9935 6.00646 15.3048 6.00646 12C6.00646 8.69517 8.69514 6.00646 12 6.00646C15.3049 6.00646 17.9935 8.69517 17.9935 12Z" fill="black"/>
</svg>
