<svg width="16" height="16" viewBox="0 0 16 16" fill="none" xmlns="http://www.w3.org/2000/svg">
<path fill-rule="evenodd" clip-rule="evenodd" d="M13.7594 8.13579C13.7594 7.71052 13.7211 7.30115 13.6504 6.90869H7.99976V9.22959H11.2287C11.0897 9.97965 10.6668 10.615 10.0314 11.0403V12.5455H11.9703C13.1047 11.5011 13.7594 9.96307 13.7594 8.13579Z" fill="#4285F4"/>
<path fill-rule="evenodd" clip-rule="evenodd" d="M7.99993 13.9993C9.61982 13.9993 10.9778 13.4621 11.9705 12.5459L10.0316 11.0407C9.4943 11.4007 8.80717 11.6135 7.99993 11.6135C6.43721 11.6135 5.11471 10.5579 4.64275 9.14001H2.63818V10.6946C3.62541 12.6555 5.65433 14 7.99959 14L7.99993 13.9993Z" fill="#34A853"/>
<path fill-rule="evenodd" clip-rule="evenodd" d="M4.64264 9.13927C4.52254 8.77929 4.45453 8.39462 4.45453 7.99946C4.45453 7.6043 4.52288 7.21962 4.64264 6.85965V5.30505H2.63808C2.23175 6.115 2 7.03118 2 7.99946C2 8.96774 2.23175 9.88392 2.63808 10.6939L4.64264 9.13927Z" fill="#FBBC05"/>
<path fill-rule="evenodd" clip-rule="evenodd" d="M7.99983 4.38619C8.88083 4.38619 9.67149 4.68899 10.2933 5.28343L12.014 3.56271C10.975 2.59443 9.61702 2 7.99983 2C5.65458 2 3.62565 3.3445 2.63843 5.30542L4.64299 6.86001C5.11461 5.44176 6.43746 4.38653 8.00017 4.38653L7.99983 4.38619Z" fill="#EA4335"/>
</svg>
