<svg id="Capa_1" enable-background="new 0 0 49.652 49.652" height="512" viewBox="0 0 49.652 49.652" width="512" xmlns="http://www.w3.org/2000/svg"><g><g><g><path d="m24.825 29.796c2.739 0 4.972-2.229 4.972-4.97 0-1.082-.354-2.081-.94-2.897-.903-1.252-2.371-2.073-4.029-2.073-1.659 0-3.126.82-4.031 2.072-.588.816-.939 1.815-.94 2.897-.003 2.741 2.228 4.971 4.968 4.971z"/><path d="m35.678 18.746v-4.166-.62l-.623.002-4.164.013.016 4.787z"/><path d="m24.826 0c-13.689 0-24.826 11.137-24.826 24.826 0 13.688 11.137 24.826 24.826 24.826 13.688 0 24.826-11.138 24.826-24.826 0-13.689-11.136-24.826-24.826-24.826zm14.119 21.929v11.56c0 3.011-2.448 5.458-5.457 5.458h-17.324c-3.01 0-5.457-2.447-5.457-5.458v-11.56-5.764c0-3.01 2.447-5.457 5.457-5.457h17.323c3.01 0 5.458 2.447 5.458 5.457z"/><path d="m32.549 24.826c0 4.257-3.464 7.723-7.723 7.723s-7.722-3.466-7.722-7.723c0-1.024.204-2.003.568-2.897h-4.215v11.56c0 1.494 1.213 2.704 2.706 2.704h17.323c1.491 0 2.706-1.21 2.706-2.704v-11.56h-4.217c.367.894.574 1.873.574 2.897z"/></g></g></g></svg>