<svg width="24" height="24" viewBox="0 0 24 24" fill="none" xmlns="http://www.w3.org/2000/svg">
<path d="M15.4657 19.0298C15.6735 19.0344 15.8776 18.9741 16.0495 18.8574C16.2215 18.7406 16.3528 18.5731 16.4252 18.3782C16.4976 18.1834 16.5075 17.9709 16.4535 17.7701C16.3995 17.5694 16.2843 17.3906 16.1239 17.2584L10.0048 12.0162L16.1239 6.77585C16.2349 6.69431 16.3278 6.5908 16.3968 6.47169C16.4659 6.35259 16.5096 6.22047 16.5253 6.08368C16.5409 5.9469 16.5281 5.80838 16.4878 5.67676C16.4474 5.54513 16.3803 5.42322 16.2906 5.31874C16.201 5.21425 16.0907 5.12949 15.9667 5.0696C15.8428 5.0097 15.7078 4.97606 15.5702 4.97075C15.4326 4.96544 15.2954 4.98852 15.1672 5.03868C15.039 5.08885 14.9225 5.16495 14.8251 5.26222L7.81923 11.2564C7.70921 11.3503 7.62087 11.4669 7.56029 11.5982C7.49971 11.7295 7.46834 11.8725 7.46834 12.0171C7.46834 12.1617 7.49971 12.3047 7.56029 12.436C7.62087 12.5674 7.70921 12.684 7.81923 12.7779L14.8251 18.7779C15.0021 18.9351 15.2291 19.0242 15.4657 19.0298Z" fill="black"/>
</svg>
