<svg width="14" height="14" viewBox="0 0 14 14" fill="none" xmlns="http://www.w3.org/2000/svg">
<path d="M9.82324 1.74994C8.80424 1.74994 7.91095 2.20431 7.23995 3.06397C7.15047 3.17862 7.0707 3.29332 7 3.40441C6.9293 3.2933 6.84953 3.17862 6.76005 3.06397C6.08905 2.20431 5.19576 1.74994 4.17676 1.74994C2.25179 1.74994 0.875 3.36175 0.875 5.29584C0.875 7.50737 2.68755 9.59164 6.75206 12.0539C6.82826 12.1001 6.91413 12.1232 7 12.1232C7.08587 12.1232 7.17174 12.1001 7.24794 12.0539C11.3125 9.59166 13.125 7.50739 13.125 5.29586C13.125 3.36278 11.7493 1.74994 9.82324 1.74994ZM10.9037 8.04957C10.0575 8.99373 8.77876 9.9879 7 11.0839C5.22124 9.9879 3.94252 8.99373 3.09634 8.0496C2.24559 7.10032 1.83203 6.19956 1.83203 5.29586C1.83203 3.90328 2.77313 2.70697 4.17676 2.70697C4.89156 2.70697 5.50105 3.01777 5.9883 3.63074C6.37791 4.12096 6.54206 4.62716 6.54321 4.63077C6.60554 4.83067 6.79063 4.96683 7.00002 4.96683C7.20942 4.96683 7.39451 4.83069 7.45684 4.63077C7.45835 4.62594 7.61757 4.13553 7.99438 3.6528C8.48426 3.02518 9.09958 2.70695 9.82324 2.70695C11.2284 2.70695 12.168 3.90441 12.168 5.29584C12.168 6.19954 11.7544 7.10029 10.9037 8.04957Z" fill="#A0A0A0"/>
</svg>
