<svg width="14" height="14" viewBox="0 0 14 14" fill="none" xmlns="http://www.w3.org/2000/svg">
<path fill-rule="evenodd" clip-rule="evenodd" d="M7.23995 3.06403C7.91095 2.20437 8.80424 1.75 9.82324 1.75C11.7493 1.75 13.125 3.36284 13.125 5.29592C13.125 7.50745 11.3125 9.59172 7.24794 12.054C7.17174 12.1001 7.08587 12.1232 7 12.1232C6.91413 12.1232 6.82826 12.1001 6.75206 12.054C2.68755 9.5917 0.875 7.50743 0.875 5.2959C0.875 3.36181 2.25179 1.75 4.17676 1.75C5.19576 1.75 6.08905 2.20437 6.76005 3.06403C6.84953 3.17868 6.9293 3.29336 7 3.40447C7.0707 3.29338 7.15047 3.17868 7.23995 3.06403Z" fill="#A0A0A0"/>
</svg>
