<svg width="24" height="24" viewBox="0 0 24 24" fill="none" xmlns="http://www.w3.org/2000/svg">
<path fill-rule="evenodd" clip-rule="evenodd" d="M12 3C14.4852 3 16.7352 4.00739 18.3639 5.63607C19.9926 7.26475 21 9.51479 21 12C21 14.4852 19.9926 16.7352 18.3639 18.3639C16.7352 19.9926 14.4852 21 12 21C9.51479 21 7.26475 19.9926 5.63607 18.3639C4.00739 16.7352 3 14.4852 3 12C3 9.51479 4.00739 7.26475 5.63607 5.63607C7.26475 4.00739 9.51479 3 12 3ZM9.08454 11.1779L8.65596 11.6064V15.5714L9.08454 16H14.9154L15.344 15.5714V11.6064L14.9154 11.1779H14.3528V10.0175C14.3528 9.46225 14.1259 8.95779 13.7605 8.59232C13.395 8.22686 12.8905 8 12.3353 8H11.6647C11.1095 8 10.605 8.22686 10.2395 8.59229C9.87411 8.95771 9.64725 9.46221 9.64725 10.0175V11.1778L9.08454 11.1779ZM10.5044 11.1779H13.4956V11.1768V10.0175C13.4956 9.69886 13.365 9.40886 13.1545 9.19836C12.9439 8.98782 12.6539 8.85714 12.3353 8.85714H11.6647C11.3461 8.85714 11.0561 8.98782 10.8456 9.19832C10.6351 9.40882 10.5044 9.69882 10.5044 10.0175V11.1688L10.5044 11.1779Z" fill="black"/>
</svg>
