<svg width="16" height="16" viewBox="0 0 16 16" fill="none" xmlns="http://www.w3.org/2000/svg">
<path fill-rule="evenodd" clip-rule="evenodd" d="M2 2.66667C2 2.29848 2.29848 2 2.66667 2H9.33333C9.70152 2 10 2.29848 10 2.66667C10 3.03486 9.70152 3.33333 9.33333 3.33333H3.33333V12.6667H9.33333C9.70152 12.6667 10 12.9651 10 13.3333C10 13.7015 9.70152 14 9.33333 14H2.66667C2.29848 14 2 13.7015 2 13.3333V2.66667Z" fill="black"/>
<path fill-rule="evenodd" clip-rule="evenodd" d="M7.33325 7.99998C7.33325 7.63179 7.63173 7.33331 7.99992 7.33331H12.6666C13.0348 7.33331 13.3333 7.63179 13.3333 7.99998C13.3333 8.36817 13.0348 8.66665 12.6666 8.66665H7.99992C7.63173 8.66665 7.33325 8.36817 7.33325 7.99998Z" fill="black"/>
<path fill-rule="evenodd" clip-rule="evenodd" d="M10.1953 4.86195C10.4556 4.6016 10.8777 4.6016 11.1381 4.86195L13.8047 7.52862C14.0651 7.78897 14.0651 8.21108 13.8047 8.47142L11.1381 11.1381C10.8777 11.3984 10.4556 11.3984 10.1953 11.1381C9.93491 10.8777 9.93491 10.4556 10.1953 10.1953L12.3905 8.00002L10.1953 5.80476C9.93491 5.54441 9.93491 5.1223 10.1953 4.86195Z" fill="black"/>
</svg>
