<svg width="20" height="20" viewBox="0 0 20 20" fill="none" xmlns="http://www.w3.org/2000/svg">
<path d="M2.40028 0C1.11063 0 0.061554 1.06827 0.061554 2.38135C0.061554 3.69444 1.1102 4.76263 2.40028 4.76263C3.69037 4.76263 4.73901 3.69444 4.73901 2.38135C4.73901 1.06827 3.68987 0 2.40028 0Z" fill="#2F2F2F"/>
<path d="M9.96954 0C8.67996 0 7.63081 1.06827 7.63081 2.38135C7.63081 3.69444 8.67996 4.76263 9.96954 4.76263C11.2592 4.76263 12.3085 3.69444 12.3085 2.38135C12.3085 1.06827 11.2596 0 9.96954 0Z" fill="#2F2F2F"/>
<path d="M17.6613 4.7627C18.9506 4.7627 20 3.69451 20 2.38143C20 1.06834 18.9515 0 17.6613 0C16.371 0 15.3225 1.06827 15.3225 2.38135C15.3225 3.69444 16.3718 4.7627 17.6613 4.7627Z" fill="#2F2F2F"/>
<path d="M2.33916 12.3933C3.62875 12.3933 4.67811 11.3253 4.67811 10.012C4.67811 8.69863 3.62875 7.63043 2.33916 7.63043C1.04958 7.63043 0 8.6987 0 10.012C0 11.3253 1.04958 12.3933 2.33916 12.3933Z" fill="#2F2F2F"/>
<path d="M9.90843 12.3933C11.1978 12.3933 12.2472 11.3253 12.2472 10.012C12.2472 8.69863 11.1987 7.63043 9.90843 7.63043C8.61842 7.63043 7.5697 8.69863 7.5697 10.012C7.5697 11.3253 8.61885 12.3933 9.90843 12.3933Z" fill="#2F2F2F"/>
<path d="M17.6008 12.3933C18.8907 12.3933 19.9395 11.3253 19.9395 10.012C19.9395 8.69863 18.8907 7.63043 17.6008 7.63043C16.3109 7.63043 15.2612 8.69863 15.2612 10.012C15.2612 11.3253 16.3106 12.3933 17.6008 12.3933Z" fill="#2F2F2F"/>
<path d="M2.39268 15.2374C1.10309 15.2374 0.0535126 16.3054 0.0535126 17.6187C0.0535126 18.9316 1.10309 20 2.39268 20C3.68226 20 4.73133 18.9321 4.73133 17.6187C4.73133 16.3054 3.68226 15.2374 2.39268 15.2374Z" fill="#2F2F2F"/>
<path d="M9.96238 15.2374C8.67272 15.2374 7.62321 16.3054 7.62321 17.6187C7.62321 18.9316 8.67236 20 9.96238 20C11.2517 20 12.301 18.9321 12.301 17.6187C12.301 16.3054 11.2517 15.2374 9.96238 15.2374Z" fill="#2F2F2F"/>
<path d="M17.6539 15.2374C16.3645 15.2374 15.3152 16.3054 15.3152 17.6187C15.3152 18.9316 16.3645 20 17.6539 20C18.9438 20 19.9926 18.9321 19.9926 17.6187C19.9926 16.3054 18.9432 15.2374 17.6539 15.2374Z" fill="#2F2F2F"/>
</svg>
