<svg width="14" height="14" viewBox="0 0 14 14" fill="none" xmlns="http://www.w3.org/2000/svg">
<path d="M10.375 7.12494C10.375 7.81529 10.9346 8.37494 11.625 8.37494C12.3154 8.37494 12.875 7.81529 12.875 7.12494C12.875 6.43458 12.3154 5.87494 11.625 5.87494C10.9346 5.87494 10.375 6.43458 10.375 7.12494Z" fill="black"/>
<path d="M6 7.12494C6 7.81529 6.55964 8.37494 7.25 8.37494C7.94036 8.37494 8.5 7.8153 8.5 7.12494C8.5 6.43458 7.94036 5.87494 7.25 5.87494C6.55964 5.87494 6 6.43458 6 7.12494Z" fill="black"/>
<path d="M1.625 7.12494C1.625 7.81529 2.18464 8.37494 2.875 8.37494C3.56536 8.37494 4.125 7.8153 4.125 7.12494C4.125 6.43458 3.56536 5.87494 2.875 5.87494C2.18464 5.87494 1.625 6.43458 1.625 7.12494Z" fill="black"/>
</svg>
