<svg width="28" height="28" viewBox="0 0 28 28" fill="none" xmlns="http://www.w3.org/2000/svg">
<path d="M20.75 14.2499C20.75 15.6306 21.8693 16.7499 23.25 16.7499C24.6307 16.7499 25.75 15.6306 25.75 14.2499C25.75 12.8692 24.6307 11.7499 23.25 11.7499C21.8693 11.7499 20.75 12.8692 20.75 14.2499Z" fill="black"/>
<path d="M12 14.2499C12 15.6306 13.1193 16.7499 14.5 16.7499C15.8807 16.7499 17 15.6306 17 14.2499C17 12.8692 15.8807 11.7499 14.5 11.7499C13.1193 11.7499 12 12.8692 12 14.2499Z" fill="black"/>
<path d="M3.25024 14.2499C3.25024 15.6306 4.36953 16.7499 5.75024 16.7499C7.13095 16.7499 8.25024 15.6306 8.25024 14.2499C8.25024 12.8692 7.13095 11.7499 5.75024 11.7499C4.36953 11.7499 3.25024 12.8692 3.25024 14.2499Z" fill="black"/>
</svg>
