<svg width="32" height="32" viewBox="0 0 32 32" fill="none" xmlns="http://www.w3.org/2000/svg">
<path d="M16 3C8.82096 3 3 8.8202 3 16C3 23.1798 8.82096 29 16 29C23.1806 29 29 23.1798 29 16C29 8.8202 23.1806 3 16 3ZM20.7977 11.6707C21.8255 11.6707 22.6598 12.505 22.6598 13.5328C22.6598 14.5607 21.8248 15.395 20.7977 15.395C19.7698 15.395 18.9355 14.5607 18.9355 13.5328C18.9355 12.505 19.7698 11.6707 20.7977 11.6707ZM11.2016 11.6707C12.2302 11.6707 13.0637 12.505 13.0637 13.5328C13.0637 14.5607 12.2302 15.395 11.2016 15.395C10.1737 15.395 9.33945 14.5607 9.33945 13.5328C9.33945 12.505 10.1745 11.6707 11.2016 11.6707ZM23.0143 20.5198C21.4217 22.8321 18.7989 24.2122 16 24.2122C13.1996 24.2122 10.5761 22.8321 8.98569 20.5191C8.62891 20.0013 8.76023 19.2923 9.27872 18.9355C9.7972 18.578 10.5055 18.7101 10.8622 19.2286C12.0283 20.9237 13.9496 21.9348 16.0008 21.9348C18.0519 21.9348 19.9717 20.9237 21.1408 19.2286C21.4976 18.7116 22.2051 18.5803 22.7243 18.9363C23.2398 19.2931 23.3703 20.0013 23.0143 20.5198Z" fill="black"/>
</svg>
