<svg width="32" height="32" viewBox="0 0 32 32" fill="none" xmlns="http://www.w3.org/2000/svg">
<path fill-rule="evenodd" clip-rule="evenodd" d="M16 5C9.92487 5 5 9.92487 5 16C5 22.0751 9.92487 27 16 27C22.0751 27 27 22.0751 27 16C27 9.92487 22.0751 5 16 5ZM3 16C3 8.8203 8.8203 3 16 3C23.1797 3 29 8.8203 29 16C29 23.1797 23.1797 29 16 29C8.8203 29 3 23.1797 3 16Z" fill="#AEAEAE"/>
<path d="M11.5 15C12.3284 15 13 14.3284 13 13.5C13 12.6716 12.3284 12 11.5 12C10.6716 12 10 12.6716 10 13.5C10 14.3284 10.6716 15 11.5 15Z" fill="#AEAEAE"/>
<path d="M20.5 15C21.3284 15 22 14.3284 22 13.5C22 12.6716 21.3284 12 20.5 12C19.6716 12 19 12.6716 19 13.5C19 14.3284 19.6716 15 20.5 15Z" fill="#AEAEAE"/>
<path fill-rule="evenodd" clip-rule="evenodd" d="M10.298 18.1351C10.7756 17.8578 11.3876 18.0203 11.6648 18.4979C12.1055 19.2572 12.7379 19.8874 13.4987 20.3255C14.2595 20.7635 15.1221 20.9941 16 20.9941C16.8779 20.9941 17.7404 20.7635 18.5012 20.3255C19.262 19.8874 19.8944 19.2572 20.3351 18.4979C20.6124 18.0203 21.2243 17.8578 21.702 18.1351C22.1796 18.4123 22.3421 19.0243 22.0648 19.5019C21.4483 20.5641 20.5635 21.4458 19.4992 22.0587C18.4348 22.6715 17.2282 22.9941 16 22.9941C14.7718 22.9941 13.5651 22.6715 12.5008 22.0587C11.4364 21.4458 10.5517 20.5641 9.9351 19.5019C9.65786 19.0243 9.82031 18.4123 10.298 18.1351Z" fill="#AEAEAE"/>
</svg>
