<svg width="32" height="32" viewBox="0 0 32 32" fill="none" xmlns="http://www.w3.org/2000/svg">
<path d="M28.9999 22.0988V24.5C28.9991 25.2386 28.7054 25.9467 28.1831 26.4689C27.6609 26.9912 26.9528 27.2849 26.2142 27.2857H11.7549L21.0083 15.5764C21.09 15.4741 21.1923 15.3902 21.3086 15.3299C21.4249 15.2697 21.5525 15.2346 21.6832 15.2268C21.8139 15.219 21.9447 15.2388 22.0673 15.2848C22.1899 15.3308 22.3014 15.4021 22.3947 15.494L28.9999 22.0988Z" fill="black"/>
<path d="M10.3576 19.2419L13.3689 22.2531L9.39379 27.2857H5.78592C5.37051 27.2843 4.96075 27.1894 4.58699 27.0081C4.21323 26.8268 3.88504 26.5637 3.62671 26.2384L8.95792 19.3416C9.03813 19.2357 9.14004 19.1482 9.25683 19.0848C9.37363 19.0215 9.5026 18.9838 9.63512 18.9744C9.76764 18.965 9.90065 18.9839 10.0252 19.0301C10.1498 19.0762 10.2631 19.1484 10.3576 19.2419Z" fill="black"/>
<path d="M7.42 18.2971C7.6559 17.9674 7.96044 17.6926 8.31268 17.4918C8.66491 17.291 9.05647 17.1689 9.46041 17.134C9.86435 17.099 10.2711 17.1519 10.6526 17.2892C11.0341 17.4264 11.3814 17.6447 11.6704 17.929L14.5276 20.7857L19.5483 14.4293C19.7931 14.1218 20.0999 13.8693 20.4487 13.6881C20.7974 13.507 21.1804 13.4013 21.5727 13.3778C21.965 13.3544 22.3579 13.4138 22.7257 13.5521C23.0936 13.6905 23.4282 13.9047 23.7079 14.1808L29 19.4728V7.78571C28.9992 7.04715 28.7054 6.33906 28.1832 5.81681C27.6609 5.29457 26.9529 5.00081 26.2143 5H5.78571C5.04715 5.00081 4.33906 5.29457 3.81681 5.81681C3.29457 6.33906 3.00081 7.04715 3 7.78571V24.0219L7.42 18.2971ZM12.2857 8.71429C12.8367 8.71429 13.3753 8.87767 13.8334 9.18376C14.2915 9.48986 14.6485 9.92493 14.8594 10.434C15.0702 10.943 15.1254 11.5031 15.0179 12.0435C14.9104 12.5838 14.6451 13.0802 14.2555 13.4698C13.8659 13.8594 13.3696 14.1247 12.8292 14.2322C12.2888 14.3397 11.7287 14.2845 11.2197 14.0737C10.7106 13.8628 10.2756 13.5058 9.96948 13.0477C9.66338 12.5896 9.5 12.051 9.5 11.5C9.50081 10.7614 9.79457 10.0533 10.3168 9.5311C10.8391 9.00885 11.5471 8.7151 12.2857 8.71429Z" fill="black"/>
</svg>
