<svg width="32" height="32" viewBox="0 0 32 32" fill="none" xmlns="http://www.w3.org/2000/svg">
<path d="M26.2143 5H5.78571C5.04715 5.00081 4.33906 5.29457 3.81681 5.81681C3.29457 6.33906 3.00081 7.04715 3 7.78571V24.5C3.00081 25.2386 3.29457 25.9467 3.81681 26.4689C4.33906 26.9911 5.04715 27.2849 5.78571 27.2857H26.2143C26.9529 27.2849 27.6609 26.9911 28.1832 26.4689C28.7054 25.9467 28.9992 25.2386 29 24.5V7.78571C28.9992 7.04715 28.7054 6.33906 28.1832 5.81681C27.6609 5.29457 26.9529 5.00081 26.2143 5ZM5.78571 25.4286C5.58435 25.4267 5.38919 25.3587 5.23031 25.235C5.07143 25.1113 4.95766 24.9387 4.90654 24.7439L8.95771 19.3416C9.03793 19.2357 9.13984 19.1481 9.25663 19.0848C9.37342 19.0215 9.5024 18.9838 9.63492 18.9744C9.76744 18.9649 9.90045 18.9839 10.025 19.0301C10.1496 19.0762 10.2629 19.1484 10.3573 19.2419L13.3865 22.2714L10.906 25.4286H5.78571ZM27.1429 24.5C27.1426 24.7462 27.0447 24.9823 26.8706 25.1564C26.6965 25.3304 26.4605 25.4284 26.2143 25.4286H13.2678L21.0083 15.5764C21.0901 15.4741 21.1924 15.3902 21.3087 15.3299C21.4249 15.2697 21.5525 15.2346 21.6832 15.2268C21.8139 15.219 21.9448 15.2388 22.0674 15.2848C22.19 15.3308 22.3015 15.4021 22.3948 15.494L27.1429 20.2417V24.5ZM27.1429 17.6157L23.7079 14.181C23.4282 13.9048 23.0936 13.6906 22.7257 13.5523C22.3579 13.414 21.965 13.3546 21.5727 13.378C21.1804 13.4015 20.7974 13.5072 20.4487 13.6883C20.0999 13.8695 19.7931 14.122 19.5483 14.4295L14.5421 20.8007L11.6703 17.9288C11.3812 17.6445 11.0339 17.4263 10.6524 17.2891C10.2709 17.1519 9.86419 17.099 9.46028 17.134C9.05637 17.169 8.66483 17.2911 8.31262 17.4919C7.96041 17.6927 7.65588 17.9674 7.42 18.2971L4.85714 21.7143V7.78571C4.85746 7.53954 4.9554 7.30354 5.12947 7.12947C5.30354 6.9554 5.53954 6.85746 5.78571 6.85714H26.2143C26.4605 6.85736 26.6965 6.95527 26.8706 7.12936C27.0447 7.30345 27.1426 7.53951 27.1429 7.78571V17.6157Z" fill="#AEAEAE"/>
<path d="M12.2857 8.71429C11.7348 8.71429 11.1962 8.87767 10.7381 9.18377C10.2799 9.48987 9.9229 9.92494 9.71205 10.434C9.50121 10.943 9.44604 11.5031 9.55353 12.0435C9.66102 12.5839 9.92633 13.0802 10.3159 13.4698C10.7055 13.8594 11.2019 14.1247 11.7422 14.2322C12.2826 14.3397 12.8427 14.2845 13.3518 14.0737C13.8608 13.8628 14.2959 13.5058 14.602 13.0477C14.9081 12.5896 15.0714 12.051 15.0714 11.5C15.0706 10.7614 14.7769 10.0534 14.2546 9.53111C13.7324 9.00886 13.0243 8.71511 12.2857 8.71429ZM12.2857 12.4286C12.1021 12.4286 11.9225 12.3741 11.7698 12.2721C11.6171 12.1701 11.4981 12.025 11.4278 11.8554C11.3575 11.6857 11.3392 11.499 11.375 11.3189C11.4108 11.1387 11.4993 10.9733 11.6291 10.8434C11.759 10.7135 11.9244 10.6251 12.1046 10.5893C12.2847 10.5535 12.4714 10.5718 12.6411 10.6421C12.8107 10.7124 12.9558 10.8314 13.0578 10.9841C13.1598 11.1368 13.2143 11.3164 13.2143 11.5C13.214 11.7462 13.116 11.9822 12.942 12.1563C12.7679 12.3303 12.5319 12.4283 12.2857 12.4286Z" fill="#AEAEAE"/>
</svg>
