<svg width="32" height="32" viewBox="0 0 32 32" fill="none" xmlns="http://www.w3.org/2000/svg">
<path d="M8.29359 21.6358C7.92615 21.2803 7.34489 21.2912 6.99272 21.6612C6.34319 22.3431 6 23.1275 6 23.93C6 26.82 10.2988 29 16 29C21.7012 29 26 26.82 26 23.93C26 23.1275 25.6568 22.3431 25.0073 21.6612C24.6551 21.2912 24.073 21.2803 23.7064 21.6358C23.5189 21.8181 23.4277 22.0612 23.4278 22.305C23.4278 22.5365 23.5097 22.7686 23.6813 22.9489C23.9993 23.2826 24.1601 23.6126 24.1601 23.93C24.1601 25.4462 20.6707 27.1428 16 27.1428C11.3293 27.1428 7.83991 25.4462 7.83991 23.93C7.83991 23.6126 8.00072 23.2826 8.31875 22.9489C8.49029 22.7686 8.57221 22.5365 8.57221 22.305C8.57226 22.0612 8.48113 21.8181 8.29359 21.6358Z" fill="#AEAEAE"/>
<path d="M16 24.8613C17.1167 24.8613 18.2334 24.456 19.1246 23.6462C19.5863 23.2261 20.061 22.7752 20.535 22.305C23.2807 19.5814 26 16.1219 26 13.0937C26 7.52769 21.5143 3 16 3C10.4857 3 6 7.52769 6 13.0937C6 16.1219 8.71926 19.5814 11.465 22.305C11.939 22.7752 12.4137 23.2261 12.8754 23.6462C13.7666 24.456 14.8833 24.8613 16 24.8613ZM14.108 22.266C10.1245 18.6424 7.83991 15.299 7.83991 13.0937C7.83991 8.55239 11.5009 4.85714 16 4.85714C20.4991 4.85714 24.1601 8.55239 24.1601 13.0937C24.1601 15.299 21.8755 18.6424 17.892 22.266C16.8139 23.249 15.1861 23.2472 14.108 22.266Z" fill="#AEAEAE"/>
<path d="M20.5999 13.0937C20.5999 10.5337 18.5363 8.45081 16.0002 8.45081C13.464 8.45081 11.4004 10.5337 11.4004 13.0937C11.4004 15.6536 13.464 17.7365 16.0002 17.7365C18.5363 17.7365 20.5999 15.6536 20.5999 13.0937ZM13.2403 13.0937C13.2403 11.5575 14.4783 10.3079 16.0002 10.3079C17.522 10.3079 18.76 11.5575 18.76 13.0937C18.76 14.6298 17.522 15.8794 16.0002 15.8794C14.4783 15.8794 13.2403 14.6298 13.2403 13.0937Z" fill="#AEAEAE"/>
</svg>
