<svg width="32" height="32" viewBox="0 0 32 32" fill="none" xmlns="http://www.w3.org/2000/svg">
<path d="M16 29C21.7012 29 26 26.82 26 23.93C26 23.1275 25.6568 22.3431 25.0073 21.6612C24.6551 21.2912 24.073 21.2803 23.7064 21.6358C23.5189 21.8181 23.4277 22.0612 23.4278 22.305C23.4278 22.5365 23.5097 22.7686 23.6813 22.9489C23.9993 23.2826 24.1601 23.6126 24.1601 23.93C24.1601 25.4462 20.6707 27.1428 16 27.1428C11.3293 27.1428 7.83991 25.4462 7.83991 23.93C7.83991 23.6126 8.00072 23.2826 8.31875 22.9489C8.49029 22.7686 8.57221 22.5365 8.57221 22.305C8.57226 22.0612 8.48113 21.8181 8.29359 21.6358C7.92615 21.2803 7.34489 21.2912 6.99272 21.6612C6.34319 22.3431 6 23.1275 6 23.93C6 26.82 10.2988 29 16 29Z" fill="black"/>
<path d="M12.872 23.6421C13.7644 24.4593 14.8867 24.8586 15.9999 24.8586C17.1131 24.8586 18.2354 24.4593 19.1278 23.6421C19.5877 23.2243 20.0569 22.7786 20.5353 22.305C23.2767 19.5843 25.9998 16.1207 25.9998 13.0936C25.9998 7.53143 21.5104 3 15.9999 3C10.4894 3 6 7.53143 6 13.0936C6 16.1207 8.72308 19.5843 11.4645 22.305C11.9429 22.7786 12.412 23.2243 12.872 23.6421ZM15.9999 8.45071C18.539 8.45071 20.5997 10.5307 20.5997 13.0936C20.5997 15.6564 18.539 17.7364 15.9999 17.7364C13.4608 17.7364 11.4001 15.6564 11.4001 13.0936C11.4001 10.5307 13.4608 8.45071 15.9999 8.45071Z" fill="black"/>
<path d="M16.0001 15.8793C17.5243 15.8793 18.76 14.6321 18.76 13.0936C18.76 11.5551 17.5243 10.3079 16.0001 10.3079C14.4759 10.3079 13.2402 11.5551 13.2402 13.0936C13.2402 14.6321 14.4759 15.8793 16.0001 15.8793Z" fill="black"/>
</svg>
