<svg width="16" height="16" viewBox="0 0 16 16" fill="none" xmlns="http://www.w3.org/2000/svg">
<path fill-rule="evenodd" clip-rule="evenodd" d="M7.53181 2.93287L4.17322 4.19233C3.99323 4.25983 3.86233 4.3493 3.78353 4.43033C3.71112 4.50479 3.69233 4.55967 3.68641 4.59842C3.46356 6.05704 3.88112 8.34815 4.82676 10.2995C5.29151 11.2586 5.84484 12.0517 6.42621 12.5874C7.0051 13.1209 7.53426 13.3333 7.99998 13.3333C8.46715 13.3333 8.99986 13.1195 9.58294 12.5832C10.1681 12.045 10.725 11.2488 11.1919 10.2877C12.1428 8.33019 12.5568 6.04044 12.3218 4.59258C12.316 4.55706 12.2981 4.50442 12.2266 4.43168C12.1488 4.35251 12.0196 4.26469 11.8416 4.19795L8.46814 2.93288C8.16629 2.81968 7.83366 2.81968 7.53181 2.93287ZM7.06365 1.68443L3.70506 2.94389C3.04034 3.19316 2.4756 3.69527 2.36838 4.39705C1.8187 7.9948 4.3969 14.6666 7.99998 14.6666C11.6092 14.6666 14.2213 7.97231 13.6379 4.3789C13.5256 3.68753 12.9656 3.19545 12.3098 2.94951L8.93631 1.68444C8.33261 1.45805 7.66734 1.45805 7.06365 1.68443Z" fill="black"/>
</svg>
