<svg width="24" height="24" viewBox="0 0 24 24" fill="none" xmlns="http://www.w3.org/2000/svg">
<path d="M8.53428 4.97021C8.32648 4.96564 8.12242 5.02588 7.95046 5.14265C7.77851 5.25942 7.6472 5.42694 7.57481 5.62178C7.50242 5.81662 7.49253 6.02914 7.54652 6.22986C7.60052 6.43058 7.71571 6.60941 7.87608 6.74164L13.9952 11.9838L7.87608 17.2241C7.76514 17.3057 7.67223 17.4092 7.60318 17.5283C7.53412 17.6474 7.49039 17.7795 7.47474 17.9163C7.45909 18.0531 7.47186 18.1916 7.51223 18.3232C7.5526 18.4549 7.61972 18.5768 7.70938 18.6813C7.79903 18.7858 7.9093 18.8705 8.03326 18.9304C8.15723 18.9903 8.29223 19.0239 8.4298 19.0293C8.56738 19.0346 8.70457 19.0115 8.83278 18.9613C8.961 18.9111 9.07747 18.835 9.17491 18.7378L16.1808 12.7436C16.2908 12.6497 16.3791 12.5332 16.4397 12.4018C16.5003 12.2705 16.5317 12.1275 16.5317 11.9829C16.5317 11.8383 16.5003 11.6953 16.4397 11.564C16.3791 11.4326 16.2908 11.316 16.1808 11.2221L9.17491 5.22212C8.99793 5.06492 8.77093 4.97578 8.53428 4.97021Z" fill="black"/>
</svg>
