<svg width="24" height="24" viewBox="0 0 24 24" fill="none" xmlns="http://www.w3.org/2000/svg">
<path d="M4.96997 15.4657C4.9654 15.6735 5.02564 15.8776 5.1424 16.0495C5.25917 16.2215 5.4267 16.3528 5.62154 16.4252C5.81638 16.4976 6.0289 16.5075 6.22962 16.4535C6.43034 16.3995 6.60917 16.2843 6.74139 16.1239L11.9836 10.0048L17.2239 16.1239C17.3054 16.2349 17.409 16.3278 17.5281 16.3968C17.6472 16.4659 17.7793 16.5096 17.9161 16.5253C18.0529 16.5409 18.1914 16.5281 18.323 16.4878C18.4546 16.4474 18.5765 16.3803 18.681 16.2906C18.7855 16.201 18.8703 16.0907 18.9302 15.9667C18.9901 15.8428 19.0237 15.7078 19.029 15.5702C19.0343 15.4326 19.0112 15.2954 18.9611 15.1672C18.9109 15.039 18.8348 14.9225 18.7375 14.8251L12.7433 7.81923C12.6494 7.70921 12.5329 7.62087 12.4016 7.56029C12.2702 7.49971 12.1273 7.46834 11.9826 7.46834C11.838 7.46834 11.6951 7.49971 11.5637 7.56029C11.4324 7.62087 11.3157 7.70921 11.2219 7.81923L5.22188 14.8251C5.06468 15.0021 4.97554 15.2291 4.96997 15.4657Z" fill="black"/>
</svg>
